<svg width="23" height="24" viewBox="0 0 23 24" fill="none" xmlns="http://www.w3.org/2000/svg">
<path d="M9.1 14.427C9.1 16.8018 7.17392 18.727 4.8 18.727C2.42607 18.727 0.5 16.8018 0.5 14.427C0.5 12.0522 2.42607 10.127 4.8 10.127C7.17392 10.127 9.1 12.0522 9.1 14.427Z" fill="black" stroke="black"/>
<path d="M20.023 4.80101C20.023 7.17494 18.0978 9.10101 15.723 9.10101C13.3493 9.10101 11.424 7.175 11.424 4.80101C11.424 2.42502 13.3493 0.5 15.723 0.5C18.0978 0.5 20.023 2.42508 20.023 4.80101Z" fill="black" stroke="black"/>
<path d="M21.874 18.871C21.874 21.2455 19.9502 23.168 17.574 23.168C15.1987 23.168 13.274 21.2455 13.274 18.871C13.274 16.4943 15.199 14.571 17.574 14.571C19.9499 14.571 21.874 16.4942 21.874 18.871Z" fill="black" stroke="black"/>
</svg>
