<svg width="25" height="25" viewBox="0 0 25 25" fill="none" xmlns="http://www.w3.org/2000/svg">
<path d="M23.3654 22.6971C22.459 23.6034 20.9942 23.6031 20.0906 22.6995L2.57618 5.18501C1.6726 4.28142 1.67222 2.81661 2.57857 1.91026C3.48097 1.00786 4.94578 1.00824 5.84937 1.91183L23.3638 19.4263C24.2674 20.3299 24.2678 21.7947 23.3654 22.6971Z" fill="black"/>
<path d="M2.57885 22.6991C1.67526 21.7956 1.67527 20.3311 2.57766 19.4287L20.0913 1.91509C20.9937 1.01269 22.4581 1.01268 23.3617 1.91627C24.2653 2.81985 24.2657 4.28466 23.3633 5.18706L5.84964 22.7007C4.94724 23.6031 3.48243 23.6027 2.57885 22.6991Z" fill="black"/>
</svg>
